<svg id="Capa_1" enable-background="new 0 0 512 512" height="512" viewBox="0 0 512 512" width="512" xmlns="http://www.w3.org/2000/svg" xmlns:xlink="http://www.w3.org/1999/xlink"><linearGradient id="SVGID_1_" gradientUnits="userSpaceOnUse" x1="256" x2="256" y1="512" y2="0"><stop offset="0" stop-color="#ffc8d1"/><stop offset="1" stop-color="#fff6f7"/></linearGradient><linearGradient id="SVGID_2_" gradientUnits="userSpaceOnUse" x1="256" x2="256" y1="105" y2="407"><stop offset="0" stop-color="#fd3a84"/><stop offset="1" stop-color="#ffa68d"/></linearGradient><g><circle cx="256" cy="256" fill="url(#SVGID_1_)" r="256"/><g><g><path d="m371.011 212.057c-3.47-3.47-9.09-3.47-12.56 0s-3.47 9.091 0 12.56c8.396 8.397 13.02 19.543 13.02 31.383s-4.623 22.987-13.029 31.392c-3.47 3.47-3.47 9.091 0 12.56s9.091 3.469 12.56 0c11.762-11.754 18.233-27.367 18.233-43.952s-6.471-32.19-18.224-43.943zm-37.681 25.111c-3.461 3.469-3.461 9.099.017 12.56 1.674 1.666 2.594 3.895 2.594 6.271s-.919 4.606-2.594 6.271c-3.478 3.461-3.478 9.09-.017 12.56 3.436 3.452 9.056 3.503 12.56.017 5.04-5.022 7.815-11.719 7.815-18.849s-2.776-13.827-7.815-18.849c-3.469-3.45-9.09-3.45-12.56.019zm-24.036 9.95c-4.905 0-8.882 3.976-8.882 8.882 0 4.905 3.977 8.882 8.882 8.882s8.882-3.977 8.882-8.882c0-4.906-3.977-8.882-8.882-8.882zm-53.294-142.118h-106.588c-14.694 0-26.647 11.953-26.647 26.647v248.706c0 14.694 11.953 26.647 26.647 26.647h106.588c14.694 0 26.647-11.953 26.647-26.647v-248.706c0-14.694-11.953-26.647-26.647-26.647zm-62.176 35.529h17.765c4.91 0 8.882 3.973 8.882 8.882 0 4.91-3.973 8.883-8.882 8.883h-17.765c-4.91 0-8.882-3.973-8.882-8.883-.001-4.909 3.972-8.882 8.882-8.882zm17.764 79.942v35.529c0 4.91-3.973 8.882-8.882 8.882-4.91 0-8.882-3.973-8.882-8.882v-35.529c0-4.91 3.973-8.883 8.882-8.883s8.882 3.973 8.882 8.883zm0 151h-17.765c-4.91 0-8.882-3.973-8.882-8.883 0-4.909 3.973-8.882 8.882-8.882h17.765c4.91 0 8.882 3.973 8.882 8.882.001 4.91-3.972 8.883-8.882 8.883zm-8.882-71.059c-24.487 0-44.412-19.924-44.412-44.412 0-7.85 2.099-15.553 6.063-22.275 2.481-4.242 7.928-5.629 12.161-3.14 4.224 2.49 5.63 7.937 3.14 12.161-2.359 3.99-3.6 8.579-3.6 13.254 0 14.694 11.953 26.647 26.647 26.647s26.647-11.953 26.647-26.647c0-4.675-1.24-9.264-3.6-13.254-2.49-4.224-1.084-9.672 3.14-12.161 4.198-2.49 9.654-1.102 12.161 3.14 3.964 6.723 6.063 14.425 6.063 22.275.002 24.487-19.923 44.412-44.41 44.412z" fill="url(#SVGID_2_)"/></g></g></g></svg>